<svg width="380" height="380" viewBox="0 0 380 380" fill="none" xmlns="http://www.w3.org/2000/svg">
<path d="M118.5 123.5L131 130L141.5 141.5L148.5 156L154 170.5L139.5 216.5L126 262.5L111 308L106.5 320L101 331L95 339.5L89 346L79.5 351.5L69.5 353.5H59.5L50.5 350.5L56.5 338L60 329.5L70 301.5L79 270.5L87 240L102.5 180.5L110 151.5L114 137L116 130L118.5 123.5Z" fill="url(#paint0_linear_10571_70)"/>
<path d="M118.5 123.5L121.5 117L125.5 110.5L129.5 105.5L134 100.565L141 95.5L146.5 93L154.5 90.5L162 90H169L174.5 91L179 92.5L185.5 96L189.5 99L194 104L198 110L201 116L203 120.5L205 126L208.5 136.5L214.5 158L228 206.5L251.5 282.5L263.5 311L267.5 319.5L271.5 326.5L273 329.5L274.5 331.5L278.5 335.5L283 338L286 338.5L290 338L293 336L297.5 332L295 336.5L291 342.5L287 346.5L282 351L277 354L273.5 355.5L265.5 358L255.5 358.5L248.5 358L243 357L238.5 355.5L233.5 353.5L230 351.5L226 349L223 346.5L219 343L215 338L209.5 330L204.5 320.5L200 310L195 297L172.5 227.5L160.5 188.5L156 175.5L154 170.5L148.5 156L141.5 141.5L131 130L118.5 123.5Z" fill="url(#paint1_linear_10571_70)"/>
<circle cx="160" cy="48" r="30" fill="#6214FE"/>
<path d="M208.5 136.5L228.5 134.5L238 134H245H255L263.5 134.5L281 136.5L289.5 139L296.5 141.5L302.5 144.5L307 147.5L312.5 152L317 157L321 163.5L323 168L325 174L326.5 179.5L327.5 185.5L327 197.5L326.5 205.5L323 229.5L319 252.5L315 272.5L309.5 295L304 315L297.5 332L293 336L290 338L286 338.5L283 338L278.5 335.5L274.5 331.5L273 329.5L271.5 326.5L276 314.5L282 294.5L290.5 260.5L297.5 226L300.5 206.5L301 197.5V188.5L299 180.5L295 174L289.5 168.5L282 164L272 160.5L261.5 158L251 157L238 156.5L228 157L214.5 158L211.5 147.5L208.5 136.5Z" fill="url(#paint2_linear_10571_70)"/>
<defs>
<linearGradient id="paint0_linear_10571_70" x1="154" y1="171" x2="51" y2="350" gradientUnits="userSpaceOnUse">
<stop stop-color="#3714EF"/>
<stop offset="1" stop-color="#2785FE"/>
</linearGradient>
<linearGradient id="paint1_linear_10571_70" x1="119" y1="123.5" x2="296.5" y2="333.5" gradientUnits="userSpaceOnUse">
<stop stop-color="#5018FA"/>
<stop offset="1" stop-color="#A90EFF"/>
</linearGradient>
<linearGradient id="paint2_linear_10571_70" x1="212" y1="148.5" x2="278" y2="338" gradientUnits="userSpaceOnUse">
<stop stop-color="#6B12FF"/>
<stop offset="0.262529" stop-color="#8E12FF"/>
<stop offset="0.75784" stop-color="#8A11FF"/>
<stop offset="1" stop-color="#670EFE"/>
</linearGradient>
</defs>
</svg>
